<svg width="30" height="30" viewBox="0 0 30 30" fill="none" xmlns="http://www.w3.org/2000/svg">
<mask id="mask0_2_313" style="mask-type:luminance" maskUnits="userSpaceOnUse" x="0" y="0" width="30" height="30">
<path fill-rule="evenodd" clip-rule="evenodd" d="M15 0H30V30H15H0V0H15Z" fill="white"/>
</mask>
<g mask="url(#mask0_2_313)">
<path fill-rule="evenodd" clip-rule="evenodd" d="M27.3178 14.9984C27.3024 14.9983 27.287 14.9981 27.2716 14.998C27.2716 13.7486 27.296 12.4986 27.2645 11.25C27.2348 10.0721 27.1906 8.89128 27.071 7.72002C26.9567 6.59964 26.5619 5.5671 25.8056 4.69626C24.7475 3.4779 23.351 2.96454 21.8047 2.87016C20.045 2.76282 18.2793 2.73636 16.5157 2.71482C14.7607 2.69346 13.0047 2.7006 11.2499 2.73582C10.0721 2.7594 8.89122 2.80944 7.71996 2.92896C6.59964 3.04326 5.5671 3.43806 4.6962 4.19436C3.47784 5.25246 2.96454 6.64902 2.87016 8.19528C2.76276 9.95502 2.7363 11.7207 2.71482 13.4843C2.6934 15.2393 2.7006 16.9953 2.73576 18.7501C2.7594 19.9279 2.80944 21.1088 2.92896 22.28C3.04326 23.4004 3.438 24.4329 4.19436 25.3038C5.25246 26.5221 6.64902 27.0355 8.19528 27.1298C9.95502 27.2372 11.7207 27.2636 13.4843 27.2852C15.2393 27.3065 16.9956 27.3071 18.7499 27.262C20.0455 27.2287 21.3539 27.2039 22.6297 27.0037C24.8099 26.6614 26.2853 25.3972 26.8723 23.2332C27.0625 22.532 27.1621 21.7909 27.1891 21.0638C27.2641 19.0432 27.2791 17.0204 27.3178 14.9984ZM0 19.9405C0 16.6468 0 13.3532 0 10.0595C0.0165 9.96588 0.045 9.87258 0.04782 9.77856C0.08232 8.61912 0.13452 7.46172 0.41868 6.32946C1.05972 3.77514 2.54106 1.91652 4.9773 0.8631C6.29838 0.29184 7.70214 0.12582 9.12474 0.06768C9.43674 0.0549 9.74796 0.02304 10.0595 0H19.9405C20.0341 0.01656 20.1274 0.04506 20.2214 0.04782C21.3808 0.08238 22.5383 0.13452 23.6705 0.41868C26.2249 1.05978 28.0834 2.54112 29.137 4.97736C29.7082 6.29844 29.8738 7.70226 29.9323 9.12474C29.9451 9.43674 29.9769 9.74796 30 10.0595V19.9405C29.9834 20.0341 29.9549 20.1274 29.9521 20.2215C29.9178 21.3809 29.8653 22.5383 29.5813 23.6705C28.9403 26.2249 27.4589 28.0834 25.0226 29.137C23.7016 29.7082 22.2977 29.8738 20.8752 29.9323C20.5632 29.9452 20.252 29.977 19.9405 30H10.0595C9.96588 29.9834 9.87258 29.9549 9.7785 29.9522C8.61912 29.9178 7.46172 29.8654 6.32952 29.5813C3.77514 28.9403 1.91652 27.4589 0.86304 25.0227C0.29184 23.7016 0.12582 22.2979 0.06768 20.8752C0.0549 20.5633 0.02304 20.252 0 19.9405Z" fill="#E43071"/>
</g>
<path fill-rule="evenodd" clip-rule="evenodd" d="M14.9958 19.9901C17.726 19.9902 19.9874 17.7561 19.99 15.0563C19.9927 12.2751 17.7768 10.0121 15.0487 10.0101C12.2573 10.0079 10.0103 12.228 10.0099 14.9884C10.0096 17.7486 12.2438 19.99 14.9958 19.9901ZM22.7087 15.0066C22.7071 19.2719 19.2516 22.7149 14.9786 22.7088C10.7294 22.7026 7.28826 19.249 7.29126 14.9935C7.29432 10.7268 10.7492 7.28431 15.0213 7.29139C19.2716 7.29841 22.7102 10.7494 22.7087 15.0066Z" fill="#E43071"/>
<path fill-rule="evenodd" clip-rule="evenodd" d="M22.9906 5.18837C23.998 5.18381 24.8093 5.98613 24.8116 6.98909C24.8139 7.99181 24.0049 8.80511 23.0031 8.80715C22.0106 8.80913 21.189 7.98341 21.1928 6.98747C21.1965 6.00209 22.0052 5.19281 22.9906 5.18837Z" fill="#E43071"/>
</svg>
