<svg width="185" height="44" viewBox="0 0 185 44" fill="none" xmlns="http://www.w3.org/2000/svg">
<path d="M14.8569 4.52C6.21688 4.52 0.576875 10.44 0.576875 18.84C0.576875 27.28 6.25688 33.2 14.8969 33.2C22.2569 33.2 26.6169 28.64 28.2969 24.52V16.92H13.6569V22.56H21.5369C20.3769 25 18.3769 26.28 15.6569 26.28C11.0169 26.28 8.53688 23.68 8.53688 18.84C8.53688 14.52 10.9369 11.76 14.8969 11.76C17.0569 11.76 18.6569 12.6 19.5369 14.08H27.9769C26.8569 8.2 21.9769 4.52 14.8569 4.52ZM54.0503 21.76C54.0503 14.64 48.9703 10.28 42.2903 10.28C35.6103 10.28 30.5303 14.64 30.5303 21.76C30.5303 28.92 35.5703 33.28 42.2503 33.28C48.9303 33.28 54.0503 28.92 54.0503 21.76ZM38.5303 21.76C38.5303 18.56 40.2903 17.08 42.2903 17.08C44.2903 17.08 46.0903 18.56 46.0903 21.76C46.0903 25 44.2503 26.48 42.2503 26.48C40.2103 26.48 38.5303 25 38.5303 21.76ZM79.48 21.76C79.48 14.64 74.4 10.28 67.72 10.28C61.04 10.28 55.96 14.64 55.96 21.76C55.96 28.92 61 33.28 67.68 33.28C74.36 33.28 79.48 28.92 79.48 21.76ZM63.96 21.76C63.96 18.56 65.72 17.08 67.72 17.08C69.72 17.08 71.52 18.56 71.52 21.76C71.52 25 69.68 26.48 67.68 26.48C65.64 26.48 63.96 25 63.96 21.76ZM81.3897 21.76C81.3897 28.92 85.6297 33.28 90.9497 33.28C94.1097 33.28 96.3497 31.88 97.5097 29.88V33H105.39V3.4H97.5097V13.64C96.2697 11.6 93.9497 10.28 90.9897 10.28C85.6297 10.28 81.3897 14.6 81.3897 21.76ZM97.5497 21.76C97.5497 24.8 95.6697 26.44 93.4697 26.44C91.2297 26.44 89.3897 24.76 89.3897 21.76C89.3897 18.72 91.2297 17.12 93.4697 17.12C95.6697 17.12 97.5497 18.76 97.5497 21.76Z" fill="white"/>
<path d="M109.857 33H117.697V3.4H109.857V33ZM133.162 23.28L128.442 10.56H119.722L128.922 32.04L123.562 43.68H132.082L146.322 10.56H137.722L133.162 23.28ZM149.093 33H156.973V17.08H160.493V10.56H156.973C157.093 8.56 158.053 7.92 160.413 8.16V1.48C153.133 0.959998 149.093 4.16 149.093 10.36V10.56H146.653V17.08H149.093V33ZM173.375 16.48C175.175 16.48 176.735 17.56 176.735 19.56H169.815C170.175 17.52 171.495 16.48 173.375 16.48ZM184.255 25.24H175.895C175.455 26.16 174.615 27 173.095 27C171.335 27 169.935 25.96 169.775 23.36H184.615C184.695 22.76 184.735 22.12 184.735 21.52C184.735 14.56 180.055 10.28 173.415 10.28C166.695 10.28 162.015 14.64 162.015 21.76C162.015 28.92 166.775 33.28 173.415 33.28C179.015 33.28 183.215 29.84 184.255 25.24Z" fill="#FFC1D8"/>
</svg>
